# xmcd CD database file
#
# Track frame offsets:
#	150
#	29632
#	49580
#	78654
#	131862
#	168687
#	189433
#	220719
#	238998
#	272024
#
# Disc length: 3936 seconds
#
# Revision: 0
# Processed by: cddbd v1.5.1PL0 Copyright (c) Steve Scherf et al.
# Submitted via: CDex 1.51
#
DISCID=950f5e0a
DTITLE=Mike Allen - Change Is
DYEAR=2000
DGENRE=Jazz
TTITLE0=George and Ira Gershwin \ Love Walked In
TTITLE1=The Difference Between Us
TTITLE2=Falling From Grace
TTITLE3=Webster/Fain \ Love is a Many Splendored Thing
TTITLE4=Your Time Will Come
TTITLE5=Donna Maria
TTITLE6=One Up Man Ship
TTITLE7=Dave Robbins \ At The Mark
TTITLE8=Johnny Hodges \ Blues Almighty
TTITLE9=Alex North \ Streetcar Named Desire
EXTD=YEAR: 2000
EXTT0=
EXTT1=
EXTT2=
EXTT3=
EXTT4=
EXTT5=
EXTT6=
EXTT7=
EXTT8=
EXTT9=
PLAYORDER=
